<?xml version="1.0" encoding="UTF-8" ?>
<svg version="1.1" width="32" height="32" xmlns="http://www.w3.org/2000/svg" shape-rendering="crispEdges">
<rect x="15" y="2" width="1" height="1" fill="#5FCDE4" />
<rect x="16" y="2" width="1" height="1" fill="#5FCDE4" />
<rect x="14" y="3" width="1" height="1" fill="#6ED8EE" />
<rect x="15" y="3" width="1" height="1" fill="#98DFEE" />
<rect x="16" y="3" width="1" height="1" fill="#98DFEE" />
<rect x="17" y="3" width="1" height="1" fill="#6ED8EE" />
<rect x="14" y="4" width="1" height="1" fill="#6ED8EE" />
<rect x="15" y="4" width="1" height="1" fill="#B4E8F3" />
<rect x="16" y="4" width="1" height="1" fill="#B4E8F3" />
<rect x="17" y="4" width="1" height="1" fill="#6ED8EE" />
<rect x="14" y="5" width="1" height="1" fill="#6ED8EE" />
<rect x="15" y="5" width="1" height="1" fill="#B4E8F3" />
<rect x="16" y="5" width="1" height="1" fill="#B4E8F3" />
<rect x="17" y="5" width="1" height="1" fill="#6ED8EE" />
<rect x="14" y="6" width="1" height="1" fill="#6ED8EE" />
<rect x="15" y="6" width="1" height="1" fill="#B4E8F3" />
<rect x="16" y="6" width="1" height="1" fill="#B4E8F3" />
<rect x="17" y="6" width="1" height="1" fill="#6ED8EE" />
<rect x="14" y="7" width="1" height="1" fill="#6ED8EE" />
<rect x="15" y="7" width="1" height="1" fill="#C2EBF3" />
<rect x="16" y="7" width="1" height="1" fill="#C2EBF3" />
<rect x="17" y="7" width="1" height="1" fill="#6ED8EE" />
<rect x="14" y="8" width="1" height="1" fill="#6ED8EE" />
<rect x="15" y="8" width="1" height="1" fill="#C2EBF3" />
<rect x="16" y="8" width="1" height="1" fill="#C2EBF3" />
<rect x="17" y="8" width="1" height="1" fill="#6ED8EE" />
<rect x="14" y="9" width="1" height="1" fill="#6ED8EE" />
<rect x="15" y="9" width="1" height="1" fill="#C2EBF3" />
<rect x="16" y="9" width="1" height="1" fill="#C2EBF3" />
<rect x="17" y="9" width="1" height="1" fill="#6ED8EE" />
<rect x="14" y="10" width="1" height="1" fill="#6ED8EE" />
<rect x="15" y="10" width="1" height="1" fill="#C2EBF3" />
<rect x="16" y="10" width="1" height="1" fill="#C2EBF3" />
<rect x="17" y="10" width="1" height="1" fill="#6ED8EE" />
<rect x="14" y="11" width="1" height="1" fill="#6ED8EE" />
<rect x="15" y="11" width="1" height="1" fill="#D7EFF3" />
<rect x="16" y="11" width="1" height="1" fill="#D7EFF3" />
<rect x="17" y="11" width="1" height="1" fill="#6ED8EE" />
<rect x="14" y="12" width="1" height="1" fill="#6FD3E8" />
<rect x="15" y="12" width="1" height="1" fill="#D5F3F9" />
<rect x="16" y="12" width="1" height="1" fill="#D5F3F9" />
<rect x="17" y="12" width="1" height="1" fill="#6FD3E8" />
<rect x="14" y="13" width="1" height="1" fill="#6FD3E8" />
<rect x="15" y="13" width="1" height="1" fill="#D5F3F9" />
<rect x="16" y="13" width="1" height="1" fill="#D5F3F9" />
<rect x="17" y="13" width="1" height="1" fill="#6FD3E8" />
<rect x="14" y="14" width="1" height="1" fill="#6FD3E8" />
<rect x="15" y="14" width="1" height="1" fill="#D5F3F9" />
<rect x="16" y="14" width="1" height="1" fill="#D5F3F9" />
<rect x="17" y="14" width="1" height="1" fill="#6FD3E8" />
<rect x="14" y="15" width="1" height="1" fill="#6FD3E8" />
<rect x="15" y="15" width="1" height="1" fill="#D5F3F9" />
<rect x="16" y="15" width="1" height="1" fill="#D5F3F9" />
<rect x="17" y="15" width="1" height="1" fill="#6FD3E8" />
<rect x="14" y="16" width="1" height="1" fill="#6FD3E8" />
<rect x="15" y="16" width="1" height="1" fill="#D5F3F9" />
<rect x="16" y="16" width="1" height="1" fill="#D5F3F9" />
<rect x="17" y="16" width="1" height="1" fill="#6FD3E8" />
<rect x="14" y="17" width="1" height="1" fill="#6FD3E8" />
<rect x="15" y="17" width="1" height="1" fill="#D5F3F9" />
<rect x="16" y="17" width="1" height="1" fill="#D5F3F9" />
<rect x="17" y="17" width="1" height="1" fill="#6FD3E8" />
<rect x="14" y="18" width="1" height="1" fill="#6FD3E8" />
<rect x="15" y="18" width="1" height="1" fill="#D5F3F9" />
<rect x="16" y="18" width="1" height="1" fill="#D5F3F9" />
<rect x="17" y="18" width="1" height="1" fill="#6FD3E8" />
<rect x="14" y="19" width="1" height="1" fill="#6FD3E8" />
<rect x="15" y="19" width="1" height="1" fill="#D5F3F9" />
<rect x="16" y="19" width="1" height="1" fill="#D5F3F9" />
<rect x="17" y="19" width="1" height="1" fill="#6FD3E8" />
<rect x="14" y="20" width="1" height="1" fill="#6FD3E8" />
<rect x="15" y="20" width="1" height="1" fill="#D5F3F9" />
<rect x="16" y="20" width="1" height="1" fill="#D5F3F9" />
<rect x="17" y="20" width="1" height="1" fill="#6FD3E8" />
<rect x="14" y="21" width="1" height="1" fill="#6FD3E8" />
<rect x="15" y="21" width="1" height="1" fill="#D5F3F9" />
<rect x="16" y="21" width="1" height="1" fill="#D5F3F9" />
<rect x="17" y="21" width="1" height="1" fill="#6FD3E8" />
<rect x="14" y="22" width="1" height="1" fill="#6FD3E8" />
<rect x="15" y="22" width="1" height="1" fill="#D5F3F9" />
<rect x="16" y="22" width="1" height="1" fill="#D5F3F9" />
<rect x="17" y="22" width="1" height="1" fill="#6FD3E8" />
<rect x="14" y="23" width="1" height="1" fill="#6FD3E8" />
<rect x="15" y="23" width="1" height="1" fill="#D7EFF3" />
<rect x="16" y="23" width="1" height="1" fill="#D7EFF3" />
<rect x="17" y="23" width="1" height="1" fill="#6FD3E8" />
<rect x="14" y="24" width="1" height="1" fill="#6FD3E8" />
<rect x="15" y="24" width="1" height="1" fill="#C2EBF3" />
<rect x="16" y="24" width="1" height="1" fill="#C2EBF3" />
<rect x="17" y="24" width="1" height="1" fill="#6FD3E8" />
<rect x="14" y="25" width="1" height="1" fill="#6FD3E8" />
<rect x="15" y="25" width="1" height="1" fill="#C2EBF3" />
<rect x="16" y="25" width="1" height="1" fill="#C2EBF3" />
<rect x="17" y="25" width="1" height="1" fill="#6FD3E8" />
<rect x="14" y="26" width="1" height="1" fill="#6FD3E8" />
<rect x="15" y="26" width="1" height="1" fill="#B4E8F3" />
<rect x="16" y="26" width="1" height="1" fill="#B4E8F3" />
<rect x="17" y="26" width="1" height="1" fill="#6FD3E8" />
<rect x="14" y="27" width="1" height="1" fill="#6FD3E8" />
<rect x="15" y="27" width="1" height="1" fill="#B4E8F3" />
<rect x="16" y="27" width="1" height="1" fill="#B4E8F3" />
<rect x="17" y="27" width="1" height="1" fill="#6FD3E8" />
<rect x="14" y="28" width="1" height="1" fill="#6FD3E8" />
<rect x="15" y="28" width="1" height="1" fill="#B4E8F3" />
<rect x="16" y="28" width="1" height="1" fill="#B4E8F3" />
<rect x="17" y="28" width="1" height="1" fill="#6FD3E8" />
<rect x="14" y="29" width="1" height="1" fill="#6FD3E8" />
<rect x="15" y="29" width="1" height="1" fill="#98DFEE" />
<rect x="16" y="29" width="1" height="1" fill="#98DFEE" />
<rect x="17" y="29" width="1" height="1" fill="#6FD3E8" />
<rect x="15" y="30" width="1" height="1" fill="#6FD3E8" />
<rect x="16" y="30" width="1" height="1" fill="#6FD3E8" />
</svg>